<?xml version="1.0" encoding="UTF-8"?>
<svg id="Layer_1" xmlns="http://www.w3.org/2000/svg" version="1.1" xmlns:xlink="http://www.w3.org/1999/xlink" viewBox="0 0 75 75">
  <!-- Generator: Adobe Illustrator 30.6.0, SVG Export Plug-In . SVG Version: 2.1.4 Build 109)  -->
  <defs>
    <style>
      .st0 {
        fill: #fff;
      }

      .st1 {
        fill: none;
      }

      .st2 {
        clip-path: url(#clippath);
      }

      .st3 {
        fill: #1868db;
      }
    </style>
    <clipPath id="clippath">
      <rect class="st1" x="12.9" y="16.2" width="47.2" height="47.5"/>
    </clipPath>
  </defs>
  <path class="st3" d="M0,18.8C0,8.4,8.4,0,18.8,0h37.5c10.4,0,18.8,8.4,18.8,18.8v37.5c0,10.4-8.4,18.8-18.8,18.8H18.8c-10.4,0-18.8-8.4-18.8-18.8V18.8Z"/>
  <g class="st2">
    <path class="st0" d="M28,48.5h-4.2c-6.4,0-10.9-3.9-10.9-9.6h22.7c1.2,0,1.9.8,1.9,2v22.9c-5.7,0-9.5-4.6-9.5-11v-4.3ZM39.3,37.1h-4.2c-6.4,0-10.9-3.8-10.9-9.6h22.7c1.2,0,2,.8,2,2v22.9c-5.7,0-9.6-4.6-9.6-11v-4.3ZM50.6,25.9h-4.2c-6.4,0-10.9-3.9-10.9-9.6h22.7c1.2,0,1.9.8,1.9,2v22.9c-5.7,0-9.5-4.6-9.5-11v-4.2Z"/>
  </g>
</svg>