<?xml version="1.0" encoding="UTF-8"?>
<svg id="Layer_2" data-name="Layer 2" xmlns="http://www.w3.org/2000/svg" xmlns:xlink="http://www.w3.org/1999/xlink" viewBox="0 0 250 250">
  <defs>
    <style>
      .cls-1 {
        fill: url(#linear-gradient-2);
      }

      .cls-2 {
        fill: #fcd1ca;
      }

      .cls-3 {
        fill: #ff9d8d;
      }

      .cls-4 {
        fill: url(#linear-gradient);
      }
    </style>
    <linearGradient id="linear-gradient" x1="0" y1="125" x2="250" y2="125" gradientUnits="userSpaceOnUse">
      <stop offset="0" stop-color="#ff595a"/>
      <stop offset="1" stop-color="#fc4452"/>
    </linearGradient>
    <linearGradient id="linear-gradient-2" x1="220.44" y1="-25.37" x2="27.41" y2="167.66" gradientUnits="userSpaceOnUse">
      <stop offset="0" stop-color="#ff6661"/>
      <stop offset=".52" stop-color="#fe635f"/>
      <stop offset=".74" stop-color="#fe5c59"/>
      <stop offset=".9" stop-color="#fd504f"/>
      <stop offset="1" stop-color="#fc4445"/>
    </linearGradient>
  </defs>
  <g id="Layer_1-2" data-name="Layer 1">
    <g>
      <path class="cls-4" d="M250,9.3v101.65c0,1.2-.22,2.33-.63,3.37-.33.87-.78,1.65-1.35,2.35-.12.15-.23.3-.37.43l-26.33,31.27-76.93,91.32-3.15,3.75s0,.02-.02.02c-3.82,3.68-8.88,6.08-14.5,6.48-.57.05-1.13.07-1.72.07v-88.95l-10.68-12.68-28.68-34.05-10.7-12.68-32.03-38.02-10.7-12.7L2.57,15.73c-.05-.05-.1-.1-.13-.15-.2-.2-.38-.42-.55-.65-.48-.62-.87-1.28-1.17-2-.03-.08-.07-.15-.08-.23-.38-.95-.6-1.98-.63-3.08v-.62c.07-2.32,1-4.45,2.5-6.02C4.17,1.13,6.62,0,9.3,0h231.38c2.7,0,5.12,1.13,6.8,2.97,1.57,1.63,2.52,3.88,2.52,6.33Z"/>
      <path class="cls-1" d="M250,9.3v101.65c0,1.2-.22,2.33-.63,3.37-.33.87-.78,1.65-1.35,2.35-.12.15-.23.3-.37.43l-26.33,31.27-76.93,91.32-3.15,3.75s0,.02-.02.02c-3.82,3.68-8.88,6.08-14.5,6.48-.57.05-1.13.07-1.72.07v-88.95l-10.68-12.68-28.68-34.05-10.7-12.68-32.03-38.02-10.7-12.7L2.57,15.73c-.05-.05-.1-.1-.13-.15-.2-.2-.38-.42-.55-.65-.48-.62-.87-1.28-1.17-2-.03-.08-.07-.15-.08-.23-.38-.95-.6-1.98-.63-3.08v-.62c.07-2.32,1-4.45,2.5-6.02C4.17,1.13,6.62,0,9.3,0h231.38c2.7,0,5.12,1.13,6.8,2.97,1.57,1.63,2.52,3.88,2.52,6.33Z"/>
      <path class="cls-2" d="M125,211.97v38.03c-6.3,0-12.02-2.5-16.22-6.55t-.02-.02l-3.15-3.75L28.68,148.37,2.5,117.28c-.07-.03-.12-.1-.15-.17l-.42-.48s-.05-.07-.08-.1c-.5-.68-.93-1.42-1.22-2.22-.38-.95-.6-1.98-.63-3.05v-.63c0-.2.02-.4.05-.6.18-2.1,1.08-3.97,2.45-5.43,1.68-1.82,4.12-2.97,6.8-2.97h22.72l10.68,12.68,28.68,34.05,47.03,55.82,6.57,7.8.02-.02Z"/>
      <path class="cls-3" d="M125,161.06v50.91l-.02.02-6.56-7.8-47.03-55.81-28.69-34.05-10.69-12.69L2.33,66.42c-.13-.14-.25-.3-.37-.45-.55-.7-1-1.48-1.33-2.34-.38-.95-.59-1.98-.63-3.08v-.63c.06-2.33,1-4.42,2.5-6.02,1.67-1.84,4.11-2.98,6.8-2.98h22.91l10.7,12.7,32.03,38.02,10.69,12.69,28.69,34.05,10.69,12.69Z"/>
    </g>
  </g>
</svg>